# xmcd
#
# Track frame offsets: 
#        150
#        15191
#        32050
#        46176
#        63274
#        79560
#        92203
#        109061
#        123835
#        142876
#        163470
#        176834
#
# Disc length: 2572 seconds
#
# Revision: 1
# Processed by: cddbd v1.4PL0 Copyright (c) Steve Scherf et al.
# Submitted via: ExactAudioCopy v0.90b4
#
DISCID=910a0a0c
DTITLE=Dale Watson - One More Once More
DYEAR=2003
DGENRE=Country
TTITLE0=Once More
TTITLE1=You Win Again
TTITLE2=You've Got Me Now
TTITLE3=Do You
TTITLE4=So Glad You're Mine
TTITLE5=Cupid
TTITLE6=6 Days
TTITLE7=Monterrey
TTITLE8=San Antone
TTITLE9=Deep In The Heart
TTITLE10=Wagon
TTITLE11=Danced All Night
EXTD=YEAR: 2003
EXTT0=
EXTT1=
EXTT2=
EXTT3=
EXTT4=
EXTT5=
EXTT6=
EXTT7=
EXTT8=
EXTT9=
EXTT10=
EXTT11=
PLAYORDER=
